<svg version="1.2" xmlns="http://www.w3.org/2000/svg" viewBox="0 0 69 69" width="69" height="69">
	<title>image</title>
	<defs>
		<linearGradient id="g1" x2="1" gradientUnits="userSpaceOnUse" gradientTransform="matrix(0,69,-69,0,34.5,0)">
			<stop offset="0" stop-color="#0095d3"/>
			<stop offset="1" stop-color="#1280d2"/>
		</linearGradient>
	</defs>
	<style>
		.s0 { fill: url(#g1) } 
		.s1 { fill: #fdfdfd } 
	</style>
	<path id="Layer" class="s0" d="m0 8c0-4.4 3.6-8 8-8h53c4.4 0 8 3.6 8 8v53c0 4.4-3.6 8-8 8h-53c-4.4 0-8-3.6-8-8z"/>
	<path id="Layer" fill-rule="evenodd" class="s1" d="m28.9 17.6c0 0 0.3 0.7 0.6 1.8 1.9-0.3 3.6-0.4 4.5-0.4 0.9 0 2.6 0.1 4.5 0.4 0.3-1.1 0.6-1.8 0.6-1.8 0.1-0.3 0.4-0.6 0.8-0.6q0.1 0 0.2 0c0 0 6.4 0.4 10.5 3.8q0.1 0 0.1 0c0.7 0.7 1.3 1.7 1.9 3.2 0.7 1.5 1.4 3.4 2.1 5.5 1.2 4.3 2.3 9.6 2.3 14.5q0 0.3-0.1 0.5c-1.5 2.6-4.2 4.1-6.7 5.1-2.5 1-4.8 1.4-6 1.4-0.3 0-0.6-0.1-0.8-0.4l-2.5-3.4c-1.9 0.5-4.2 0.8-6.9 0.8-2.7 0-5-0.3-6.9-0.8l-2.5 3.4c-0.2 0.3-0.5 0.4-0.8 0.4-1.2 0-3.5-0.4-6-1.4-2.5-1-5.2-2.5-6.7-5.1q-0.1-0.2-0.1-0.5c0-4.9 1.1-10.2 2.3-14.5 0.7-2.1 1.4-4 2.1-5.5 0.6-1.5 1.2-2.5 1.9-3.2q0 0 0.1 0c4.1-3.4 10.5-3.8 10.5-3.8 0.4 0 0.8 0.2 1 0.6zm-10.2 4.7c-0.2 0.2-0.9 1.2-1.5 2.5-0.6 1.4-1.3 3.2-1.9 5.3-1.2 4-2.2 9-2.3 13.6 1.2 1.8 3.3 3.2 5.5 4 2 0.8 3.9 1.1 4.8 1.2l1.7-2.2q-1.3-0.5-2.3-0.9c-2.5-1.1-3.9-2.3-3.9-2.3-0.3-0.3-0.4-0.7-0.3-1 0.1-0.4 0.5-0.7 0.8-0.8 0.3 0 0.7 0.1 0.9 0.3 0 0 1 1 3.3 2 0.9 0.3 1.9 0.7 3.1 1.1q0.4-0.1 0.7 0.1c1.9 0.5 4.1 0.8 6.7 0.8 2.6 0 4.8-0.3 6.7-0.8q0.3-0.2 0.7-0.2 1.8-0.5 3.1-1c2.3-1 3.3-2 3.3-2 0.4-0.4 1.1-0.3 1.4 0.1 0.4 0.4 0.4 1 0 1.4 0 0-1.4 1.2-3.9 2.3q-1 0.4-2.3 0.9l1.7 2.2c0.9-0.1 2.8-0.4 4.8-1.2 2.2-0.8 4.3-2.2 5.5-4-0.1-4.6-1.1-9.6-2.3-13.6-0.6-2.1-1.3-3.9-1.9-5.3-0.6-1.3-1.3-2.3-1.5-2.5-3-2.4-7.4-3-8.6-3.1q-0.1 0.2-0.2 0.6c2.3 0.5 4.8 1.4 7.1 2.8 0.3 0.1 0.6 0.5 0.6 0.9 0 0.4-0.2 0.7-0.6 0.9-0.3 0.2-0.8 0.1-1.1-0.1-4.6-2.9-10.5-3.3-12.5-3.3-2 0-7.9 0.4-12.5 3.3-0.3 0.2-0.8 0.3-1.1 0.1-0.4-0.2-0.6-0.5-0.6-0.9 0-0.4 0.3-0.8 0.6-0.9 2.3-1.4 4.8-2.3 7.1-2.8q-0.1-0.4-0.2-0.6c-1.2 0.1-5.6 0.7-8.6 3.1zm13.3 13.7c0 2.7-1.9 5-4.5 5-2.6 0-4.5-2.3-4.5-5 0-2.7 1.9-5 4.5-5 2.6 0 4.5 2.3 4.5 5zm13 0c0 2.7-1.9 5-4.5 5-2.6 0-4.5-2.3-4.5-5 0-2.7 1.9-5 4.5-5 2.6 0 4.5 2.3 4.5 5zm-20 0c0 1.7 1.2 3 2.5 3 1.3 0 2.5-1.3 2.5-3 0-1.7-1.2-3-2.5-3-1.3 0-2.5 1.3-2.5 3zm13 0c0 1.7 1.2 3 2.5 3 1.3 0 2.5-1.3 2.5-3 0-1.7-1.2-3-2.5-3-1.3 0-2.5 1.3-2.5 3z"/>
</svg>