<svg version="1.2" xmlns="http://www.w3.org/2000/svg" viewBox="0 0 69 69" width="69" height="69">
	<title>image</title>
	<defs>
		<linearGradient id="g1" x2="1" gradientUnits="userSpaceOnUse" gradientTransform="matrix(0,69,-69,0,34.5,0)">
			<stop offset="0" stop-color="#0095d3"/>
			<stop offset="1" stop-color="#1280d2"/>
		</linearGradient>
	</defs>
	<style>
		.s0 { fill: url(#g1) } 
		.s1 { fill: #fdfdfd } 
	</style>
	<path id="Layer" class="s0" d="m0 8c0-4.4 3.6-8 8-8h53c4.4 0 8 3.6 8 8v53c0 4.4-3.6 8-8 8h-53c-4.4 0-8-3.6-8-8z"/>
	<path id="Layer" fill-rule="evenodd" class="s1" d="m37 35c0 7.2-5.8 13-13 13-7.2 0-13-5.8-13-13 0-7.2 5.8-13 13-13 7.2 0 13 5.8 13 13zm-24 0c0 6.1 4.9 11 11 11 6.1 0 11-4.9 11-11 0-6.1-4.9-11-11-11-6.1 0-11 4.9-11 11zm38 0c0 6.6-2.9 12-6.5 12-3.6 0-6.5-5.4-6.5-12 0-6.6 2.9-12 6.5-12 3.6 0 6.5 5.4 6.5 12zm-11 0c0 5.7 2.4 10 4.5 10 2.1 0 4.5-4.3 4.5-10 0-5.7-2.4-10-4.5-10-2.1 0-4.5 4.3-4.5 10zm17 0c0 6.1-1.1 11-2.5 11-1.4 0-2.5-4.9-2.5-11 0-6.1 1.1-11 2.5-11 1.4 0 2.5 4.9 2.5 11zm-3 0c0 2.7 0.2 4.8 0.5 6.4 0.3-1.6 0.5-3.7 0.5-6.4 0-2.7-0.2-4.8-0.5-6.4-0.3 1.6-0.5 3.7-0.5 6.4z"/>
</svg>