<svg version="1.2" xmlns="http://www.w3.org/2000/svg" viewBox="0 0 69 69" width="69" height="69">
	<title>image</title>
	<defs>
		<linearGradient id="g1" x2="1" gradientUnits="userSpaceOnUse" gradientTransform="matrix(0,69,-69,0,34.5,0)">
			<stop offset="0" stop-color="#0095d3"/>
			<stop offset="1" stop-color="#1280d2"/>
		</linearGradient>
	</defs>
	<style>
		.s0 { fill: url(#g1) } 
		.s1 { fill: #fdfdfd } 
	</style>
	<path id="Layer" class="s0" d="m0 8c0-4.4 3.6-8 8-8h53c4.4 0 8 3.6 8 8v53c0 4.4-3.6 8-8 8h-53c-4.4 0-8-3.6-8-8z"/>
	<path id="Layer" fill-rule="evenodd" class="s1" d="m54.8 16.3c0.5 0.3 0.9 0.8 1.1 1.4q0.2 0.9-0.1 2.1l-6.5 33.9v0.1c0 0-0.3 0.8-1.1 1.5-0.8 0.6-2.2 1-3.7 0.3h-0.2l-8.8-7-5.5 5.1c0 0-0.9 0.7-1.9 0.3q0 0-0.1 0 0 0 0 0 0 0 0 0-0.1 0-0.3-0.1-0.2-0.2-0.4-0.5c-0.3-0.3-0.6-0.9-0.9-1.9-0.5-1.7-3-10-3.2-10.7l-8.9-3.1h-0.1c0 0-1.9-0.5-2.2-2.4-0.1-0.6 0.1-1.1 0.4-1.5 0.2-0.3 0.5-0.6 0.8-0.8 0.5-0.3 0.9-0.5 1.1-0.5 0.5-0.3 9.3-4.1 18.3-7.9 4.7-2 9.3-4 12.9-5.5 3.6-1.6 6.1-2.6 6.5-2.8 0.4-0.2 0.9-0.3 1.4-0.3 0.5 0 1 0.1 1.4 0.3zm-40.6 16.2l0.1-0.1q0 0 0 0.1-0.1 0-0.1 0zm38.5-14.3c-0.2 0.1-2.8 1.2-6.4 2.7-3.6 1.5-8.3 3.5-12.9 5.5-9.3 4-18.4 7.9-18.4 7.9 0 0-0.4 0.2-0.7 0.4-0.1 0.1-0.2 0.2-0.3 0.2 0 0.1 0 0.1 0 0.1 0 0.4 0.9 0.9 0.9 0.9l8.9 3 23.6-15.7q0.3-0.2 0.6-0.2 0.3 0 0.5 0.1 0.3 0.2 0.4 0.5 0.1 0.2 0.1 0.5 0 0.3-0.2 0.5l-16.3 19.2 2.9 2.2 0.2 0.2 9.7 7.6c1 0.4 1.3 0.2 1.6-0.1 0.3-0.2 0.5-0.5 0.5-0.6l6.5-33.8c0.1-0.5 0.1-0.9 0-1 0-0.2 0-0.2-0.1-0.2q-0.1-0.1-0.4-0.1-0.3 0-0.7 0.2zm-27.6 22.2c0.4 1.1 2.7 8.9 3.2 10.5 0 0.1 0.1 0.2 0.1 0.2l1.6-7.2q0 0 0 0 0-0.2 0.1-0.4 0.1 0 0.1-0.1 0 0 0 0v-0.1l12.4-14.5zm5.5 10l3.2-3-2.2-1.7z"/>
</svg>