<svg version="1.2" xmlns="http://www.w3.org/2000/svg" viewBox="0 0 69 69" width="69" height="69">
	<title>image</title>
	<defs>
		<clipPath clipPathUnits="userSpaceOnUse" id="cp1">
			<path d="m10 10h50v50h-50z"/>
		</clipPath>
	</defs>
	<style>
		.s0 { fill: #0293d3 } 
		.s1 { fill: #ffffff } 
	</style>
	<path id="Layer" class="s0" d="m0 8c0-4.4 3.6-8 8-8h53c4.4 0 8 3.6 8 8v53c0 4.4-3.6 8-8 8h-53c-4.4 0-8-3.6-8-8z"/>
	<g id="Clip-Path" clip-path="url(#cp1)">
		<g id="Layer">
			<path id="Layer" fill-rule="evenodd" class="s1" d="m51.6 18.5c2-0.4 3.8-1.1 5.6-2.2 0.3-0.2 0.8-0.1 1.1 0.1 0.3 0.3 0.5 0.7 0.3 1.1-0.3 1.2-1 2.2-1.7 3.1 0.6-0.2 1.2-0.2 1.7-0.4 0.4-0.2 0.9-0.1 1.2 0.2 0.3 0.4 0.3 0.9 0 1.3-1.2 1.9-2.9 3.5-4.7 4.9q0 0.4 0 0.9c0 6.7-2.5 14-7.4 19.5-5 5.6-12.3 9.5-21.6 9.5-5.8 0-11.1-1.7-15.6-4.6-0.4-0.2-0.6-0.7-0.4-1.2 0.1-0.4 0.6-0.7 1-0.6q1.1 0.1 2.2 0.1c3.6 0 6.8-1 9.6-2.7-3.5-0.9-6.3-3.6-7.5-7.1-0.1-0.3 0-0.7 0.2-0.9 0.3-0.3 0.6-0.4 1-0.3q0 0 0.1 0c-2.9-2-4.8-5.2-4.8-8.9v-0.1c0-0.4 0.2-0.7 0.5-0.9 0.3-0.1 0.7-0.2 1 0 0.2 0.1 0.5 0.2 0.8 0.3-1.3-1.8-2.2-4-2.2-6.4 0-2 0.5-3.8 1.5-5.4 0.1-0.3 0.4-0.5 0.8-0.5 0.3 0 0.6 0.1 0.8 0.4 4.5 5.4 11 9 18.4 9.7 0-0.4-0.1-0.7-0.1-1.1 0-6 4.8-10.8 10.8-10.8 2.9 0 5.4 1.2 7.4 3zm-16.2 7.8q0 1.1 0.2 2c0.1 0.3 0 0.7-0.2 0.9-0.2 0.2-0.5 0.4-0.8 0.4-7.9-0.4-14.9-4.1-19.9-9.6-0.4 1-0.7 2.1-0.7 3.2 0 3.1 1.6 5.8 3.9 7.4 0.4 0.2 0.6 0.7 0.5 1.1-0.2 0.5-0.6 0.8-1.1 0.7-1.1 0-2.1-0.3-3.1-0.6 0.6 3.6 3.3 6.5 6.8 7.2 0.5 0.1 0.8 0.5 0.8 0.9 0 0.5-0.3 0.9-0.7 1q-1.4 0.4-2.9 0.4-0.1 0-0.1 0c1.4 2.7 4.2 4.6 7.5 4.7 0.4 0 0.8 0.3 0.9 0.7 0.1 0.4 0 0.8-0.3 1.1-3.2 2.4-7 3.9-11.3 4.3 3.4 1.5 7.2 2.4 11.2 2.4 8.8 0 15.5-3.6 20.1-8.8 4.5-5.2 6.9-12 6.9-18.2q0-0.6 0-1.2c0-0.4 0.1-0.7 0.4-0.9q1.5-1.1 2.8-2.5c-0.9 0.2-1.8 0.6-2.8 0.8-0.5 0.1-1-0.2-1.2-0.7-0.2-0.5 0.1-1 0.5-1.2q1.5-0.9 2.6-2.4-1.8 0.8-3.8 1.2c-0.3 0-0.7-0.1-0.9-0.3-1.6-1.7-3.9-2.8-6.5-2.8-4.9 0-8.8 3.9-8.8 8.8z"/>
		</g>
	</g>
</svg>